<svg width="17" height="18" viewBox="0 0 17 18" fill="none" xmlns="http://www.w3.org/2000/svg">
<path fill-rule="evenodd" clip-rule="evenodd" d="M6.35345 5.32081C6.35345 6.60414 5.29547 7.64432 3.98922 7.64432C2.68374 7.64432 1.625 6.60414 1.625 5.32081C1.625 4.03822 2.68374 2.99805 3.98922 2.99805C5.29547 2.99805 6.35345 4.03822 6.35345 5.32081ZM14.3392 4.30314C14.9105 4.30314 15.375 4.75944 15.375 5.3208C15.375 5.88292 14.9105 6.33921 14.3392 6.33921H9.81849C9.24634 6.33921 8.7819 5.88292 8.7819 5.3208C8.7819 4.75944 9.24634 4.30314 9.81849 4.30314H14.3392ZM2.66159 11.9066H7.18226C7.75441 11.9066 8.21885 12.3629 8.21885 12.925C8.21885 13.4864 7.75441 13.9435 7.18226 13.9435H2.66159C2.08944 13.9435 1.625 13.4864 1.625 12.925C1.625 12.3629 2.08944 11.9066 2.66159 11.9066ZM13.0108 15.2203C14.3171 15.2203 15.375 14.1801 15.375 12.8975C15.375 11.6142 14.3171 10.574 13.0108 10.574C11.7053 10.574 10.6466 11.6142 10.6466 12.8975C10.6466 14.1801 11.7053 15.2203 13.0108 15.2203Z" fill="white"/>
</svg>
