<svg width="14" height="14" viewBox="0 0 14 14" fill="none" xmlns="http://www.w3.org/2000/svg">
<path d="M7.00002 1.8999C8.65002 1.8999 8.87502 1.8999 9.55002 1.8999C10.15 1.8999 10.45 2.0499 10.675 2.1249C10.975 2.2749 11.2 2.3499 11.425 2.5749C11.65 2.7999 11.8 3.0249 11.875 3.3249C11.95 3.5499 12.025 3.8499 12.1 4.4499C12.1 5.1249 12.1 5.2749 12.1 6.9999C12.1 8.7249 12.1 8.8749 12.1 9.5499C12.1 10.1499 11.95 10.4499 11.875 10.6749C11.725 10.9749 11.65 11.1999 11.425 11.4249C11.2 11.6499 10.975 11.7999 10.675 11.8749C10.45 11.9499 10.15 12.0249 9.55002 12.0999C8.87502 12.0999 8.72502 12.0999 7.00002 12.0999C5.27502 12.0999 5.12502 12.0999 4.45002 12.0999C3.85002 12.0999 3.55002 11.9499 3.32502 11.8749C3.02502 11.7249 2.80002 11.6499 2.57502 11.4249C2.35002 11.1999 2.20002 10.9749 2.12502 10.6749C2.05002 10.4499 1.97502 10.1499 1.90002 9.5499C1.90002 8.8749 1.90002 8.7249 1.90002 6.9999C1.90002 5.2749 1.90002 5.1249 1.90002 4.4499C1.90002 3.8499 2.05002 3.5499 2.12502 3.3249C2.27502 3.0249 2.35002 2.7999 2.57502 2.5749C2.80002 2.3499 3.02502 2.1999 3.32502 2.1249C3.55002 2.0499 3.85002 1.9749 4.45002 1.8999C5.12502 1.8999 5.35002 1.8999 7.00002 1.8999ZM7.00002 0.774902C5.27502 0.774902 5.12502 0.774902 4.45002 0.774902C3.77502 0.774902 3.32502 0.924903 2.95002 1.0749C2.57502 1.2249 2.20002 1.4499 1.82502 1.8249C1.45002 2.1999 1.30002 2.4999 1.07502 2.9499C0.925025 3.3249 0.850024 3.7749 0.775024 4.4499C0.775024 5.1249 0.775024 5.3499 0.775024 6.9999C0.775024 8.7249 0.775024 8.8749 0.775024 9.5499C0.775024 10.2249 0.925025 10.6749 1.07502 11.0499C1.22502 11.4249 1.45002 11.7999 1.82502 12.1749C2.20002 12.5499 2.50002 12.6999 2.95002 12.9249C3.32502 13.0749 3.77502 13.1499 4.45002 13.2249C5.12502 13.2249 5.35002 13.2249 7.00002 13.2249C8.65002 13.2249 8.87502 13.2249 9.55002 13.2249C10.225 13.2249 10.675 13.0749 11.05 12.9249C11.425 12.7749 11.8 12.5499 12.175 12.1749C12.55 11.7999 12.7 11.4999 12.925 11.0499C13.075 10.6749 13.15 10.2249 13.225 9.5499C13.225 8.8749 13.225 8.6499 13.225 6.9999C13.225 5.3499 13.225 5.1249 13.225 4.4499C13.225 3.7749 13.075 3.3249 12.925 2.9499C12.775 2.5749 12.55 2.1999 12.175 1.8249C11.8 1.4499 11.5 1.2999 11.05 1.0749C10.675 0.924903 10.225 0.849902 9.55002 0.774902C8.87502 0.774902 8.72502 0.774902 7.00002 0.774902Z" fill="white"/>
<path d="M7.00002 3.7749C5.20002 3.7749 3.77502 5.1999 3.77502 6.9999C3.77502 8.7999 5.20002 10.2249 7.00002 10.2249C8.80002 10.2249 10.225 8.7999 10.225 6.9999C10.225 5.1999 8.80002 3.7749 7.00002 3.7749ZM7.00002 9.0999C5.87502 9.0999 4.90002 8.1999 4.90002 6.9999C4.90002 5.8749 5.80002 4.8999 7.00002 4.8999C8.12502 4.8999 9.10002 5.7999 9.10002 6.9999C9.10002 8.1249 8.12502 9.0999 7.00002 9.0999Z" fill="white"/>
<path d="M10.3 4.4499C10.7142 4.4499 11.05 4.11412 11.05 3.6999C11.05 3.28569 10.7142 2.9499 10.3 2.9499C9.88581 2.9499 9.55002 3.28569 9.55002 3.6999C9.55002 4.11412 9.88581 4.4499 10.3 4.4499Z" fill="white"/>
</svg>
