<svg width="15" height="15" viewBox="0 0 15 15" fill="none" xmlns="http://www.w3.org/2000/svg">
<path fill-rule="evenodd" clip-rule="evenodd" d="M2.25 6.91663C2.25 4.01713 4.6005 1.66663 7.5 1.66663C10.3995 1.66663 12.75 4.01713 12.75 6.91663C12.75 8.68202 11.6943 10.1785 10.4779 11.2327L8.47039 12.9725C7.91349 13.4552 7.08651 13.4552 6.52961 12.9725L4.52211 11.2327C3.3057 10.1785 2.25 8.68202 2.25 6.91663ZM7.5 8.08329C8.14433 8.08329 8.66667 7.56096 8.66667 6.91663C8.66667 6.27229 8.14433 5.74996 7.5 5.74996C6.85567 5.74996 6.33333 6.27229 6.33333 6.91663C6.33333 7.56096 6.85567 8.08329 7.5 8.08329Z" fill="#007BFF"/>
</svg>
