<svg width="15" height="15" viewBox="0 0 15 15" fill="none" xmlns="http://www.w3.org/2000/svg">
<g clip-path="url(#clip0_3_2105)">
<path d="M7.15 4.81663H12.05C13.4032 4.81663 14.5 5.91344 14.5 7.26663V11.4666C14.5 11.66 14.3434 11.8166 14.15 11.8166H13.45C13.2566 11.8166 13.1 11.66 13.1 11.4666V10.4166H1.9V11.4666C1.9 11.66 1.74338 11.8166 1.55 11.8166H0.85C0.656625 11.8166 0.5 11.66 0.5 11.4666V3.76663C0.5 3.57325 0.656625 3.41663 0.85 3.41663H1.55C1.74338 3.41663 1.9 3.57325 1.9 3.76663V8.31663H6.8V5.16663C6.8 4.97325 6.95662 4.81663 7.15 4.81663Z" fill="#007BFF"/>
<path d="M4.23385 7.61651C5.26479 7.61651 6.10052 6.78078 6.10052 5.74985C6.10052 4.71891 5.26479 3.88318 4.23385 3.88318C3.20292 3.88318 2.36719 4.71891 2.36719 5.74985C2.36719 6.78078 3.20292 7.61651 4.23385 7.61651Z" fill="#007BFF"/>
</g>
<defs>
<clipPath id="clip0_3_2105">
<rect width="14" height="14" fill="white" transform="translate(0.5 0.5)"/>
</clipPath>
</defs>
</svg>
