<svg width="272" height="323" viewBox="0 0 272 323" fill="none" xmlns="http://www.w3.org/2000/svg">
<path d="M134.43 72.2308L120.924 2M158.627 53.6154L167.35 18.359M158.627 229.897L177.198 321M134.43 257.821L128.521 295.897M214.338 118.971L268.08 90.8462M65.7756 118.971L5 80.6923M39.327 133.154H10.6274M79.2813 203.385L27.2281 247.103M220.247 189.403L261.608 210.456M142.384 118.971L185.897 80.6923L172.919 140.407L225.593 155.335L172.919 170.264L185.897 210.456L146.583 189.403L108.413 241.462L112.994 179.451L39.327 166.436L101.791 140.407L89.7104 83.7546L142.384 118.971Z" stroke="white" stroke-width="16.9456"/>
</svg>
