<svg width="16" height="15" viewBox="0 0 16 15" fill="none" xmlns="http://www.w3.org/2000/svg">
<path fill-rule="evenodd" clip-rule="evenodd" d="M11.744 11.1903C13.9004 9.14814 15 7.14215 15 5.193C15 2.79268 13.5131 1.00862 11.5382 1.00001C10.6343 1 10.1357 1.09704 9.5415 1.40328C9.17601 1.59165 8.85175 1.84595 8.56891 2.16911L8.00182 2.81704L7.42952 2.17421C7.1529 1.86349 6.83334 1.61485 6.47177 1.42655C5.85965 1.10777 5.32777 1 4.46465 1C2.46505 1 1 2.75891 1 5.193C1 7.14215 2.09964 9.14814 4.25599 11.1903C5.43164 12.3036 6.94303 13.4163 8 14C9.05697 13.4163 10.5684 12.3036 11.744 11.1903Z" stroke="#007BFF"/>
</svg>
