<svg width="22" height="22" viewBox="0 0 22 22" fill="none" xmlns="http://www.w3.org/2000/svg">
<path d="M10.082 19.0215C5.15036 19.0215 1.14453 15.0157 1.14453 10.084C1.14453 5.15232 5.15036 1.14648 10.082 1.14648C15.0137 1.14648 19.0195 5.15232 19.0195 10.084C19.0195 15.0157 15.0137 19.0215 10.082 19.0215ZM10.082 2.52148C5.9112 2.52148 2.51953 5.91315 2.51953 10.084C2.51953 14.2548 5.9112 17.6465 10.082 17.6465C14.2529 17.6465 17.6445 14.2548 17.6445 10.084C17.6445 5.91315 14.2529 2.52148 10.082 2.52148Z" fill="#1A1E25"/>
<path d="M18.4803 20.8908C18.407 20.8908 18.3337 20.8817 18.2695 20.8725C17.8387 20.8175 17.0595 20.5242 16.6195 19.2133C16.3903 18.5258 16.4728 17.8383 16.8487 17.3158C17.2245 16.7933 17.857 16.5 18.5812 16.5C19.5162 16.5 20.2495 16.8575 20.5795 17.49C20.9095 18.1225 20.8178 18.9292 20.2953 19.7083C19.6445 20.6892 18.9387 20.8908 18.4803 20.8908ZM17.9303 18.7825C18.0862 19.2592 18.3062 19.4975 18.4528 19.5158C18.5995 19.5342 18.8745 19.36 19.1587 18.9475C19.4245 18.5533 19.4428 18.2692 19.3787 18.1408C19.3145 18.0125 19.0578 17.875 18.5812 17.875C18.297 17.875 18.0862 17.9667 17.967 18.1225C17.857 18.2783 17.8387 18.5167 17.9303 18.7825Z" fill="#1A1E25"/>
</svg>
